<?xml version="1.0" encoding="UTF-8" standalone="no"?>
	<svg xmlns:rdf="http://www.w3.org/1999/02/22-rdf-syntax-ns#" xmlns="http://www.w3.org/2000/svg" height="222px" width="497px" xmlns:cc="http://creativecommons.org/ns#" xmlns:xlink="http://www.w3.org/1999/xlink" xmlns:dc="http://purl.org/dc/elements/1.1/">
	<title>Fish</title>
<desc xmlns:ian_image_library="http://ian.umces.edu/imagelibrary/">
      <ian_image_library:title>Fish</ian_image_library:title>
      <ian_image_library:descr>Illustration of Carcharhinus leucas (Bull Shark) side view</ian_image_library:descr>
      <ian_image_library:scene>
		<ian_image_library:contains>symbol,vector,illustration,Animalia,Chordata,Chondrichthyes,Elasmobranchii,Carcharhiniformes,Carcharhinidae,Carcharhinus leucas,Bull Shark,Zambezi shark,Zambi,Nicaragua shark</ian_image_library:contains>
        <ian_image_library:when>2011-01-18</ian_image_library:when> 
	  </ian_image_library:scene>
   </desc>
    <metadata
		id="metadata-iil-02d53a865cc908b4c1ad1fb0a753aa0e">
      <rdf:RDF>
      <cc:Work
         rdf:about="">
        <dc:format>image/svg+xml</dc:format>
        <dc:type
           rdf:resource="http://purl.org/dc/dcmitype/StillImage" />
        <cc:license
           rdf:resource="http://creativecommons.org/licenses/by-sa/3.0/" />
        <dc:title>Fish</dc:title>
		<dc:date>2011-01-18</dc:date>
        <dc:creator>
			<cc:Agent>
				<dc:title>Dieter Tracey</dc:title>
			</cc:Agent>	
		</dc:creator>   
		<dc:rights>
          <cc:Agent>
            <dc:title>Dieter Tracey, Department of Water Western Australia</dc:title>
          </cc:Agent>
        </dc:rights>
        <dc:publisher>
          <cc:Agent>
            <dc:title>Integration and Application Network</dc:title>
          </cc:Agent>
        </dc:publisher>
		<dc:identifier>http://ian.umces.edu/imagelibrary/displayimage-6683.html</dc:identifier>
        <dc:source>http://ian.umces.edu/imagelibrary/displayimage-6683.html</dc:source>
        <dc:language>en-US</dc:language>
        <dc:subject>
          <rdf:Bag>
            <rdf:li>symbol,vector,illustration,Animalia,Chordata,Chondrichthyes,Elasmobranchii,Carcharhiniformes,Carcharhinidae,Carcharhinus leucas,Bull Shark,Zambezi shark,Zambi,Nicaragua shark</rdf:li>
          </rdf:Bag>
        </dc:subject>
        <dc:coverage></dc:coverage>
        <dc:description>Illustration of Carcharhinus leucas (Bull Shark) side view</dc:description>
        <dc:contributor>
          <cc:Agent>
            <dc:title></dc:title>
          </cc:Agent>
        </dc:contributor>
      </cc:Work>
      <cc:License
         rdf:about="http://creativecommons.org/licenses/by-sa/3.0/">
        <cc:permits
           rdf:resource="http://creativecommons.org/ns#Reproduction" />
        <cc:permits
           rdf:resource="http://creativecommons.org/ns#Distribution" />
        <cc:requires
           rdf:resource="http://creativecommons.org/ns#Notice" />
        <cc:requires
           rdf:resource="http://creativecommons.org/ns#Attribution" />
        <cc:permits
           rdf:resource="http://creativecommons.org/ns#DerivativeWorks" />
        <cc:requires
           rdf:resource="http://creativecommons.org/ns#ShareAlike" />
      </cc:License>
    </rdf:RDF>
  </metadata>
	
<defs>
</defs>
<linearGradient id="ian_symbols_f8d74415db04e2a45d0b547da5aac545" gradientUnits="userSpaceOnUse" x1="1609.4907" y1="1455.8857" x2="1609.4907" y2="1781.5498" gradientTransform="matrix(0.2 0 0 -0.2 -118.2545 456.6217)">
	<stop  offset="0.1348" style="stop-color:#C0BCC1"/>
	<stop  offset="0.2051" style="stop-color:#C2BEC3"/>
	<stop  offset="0.5393" style="stop-color:#CBC7CB"/>
	<stop  offset="0.8002" style="stop-color:#B4AFB6"/>
	<stop  offset="1" style="stop-color:#A19CA4"/>
</linearGradient>
<path fill="url(#ian_symbols_f8d74415db04e2a45d0b547da5aac545)" d="M295.023,116.502c-24.377,1.66-73.135,7.204-99.729,7.761c-26.597,0.552-50.978,0-72.029,0
	c-2.479,0-7.758-1.666-13.294-5.549c-5.544-3.878-11.637-8.859-23.271-13.294c-9.417-3.578-53.968-4.997-82.978-5.108
	c6.105,4.227,19.462,10.187,27.444,10.187c4.186,0,21.607-1.622,32.06-1.975c-8.126,0.58-22.418,1.975-25.902,2.561
	c-3.486,0.576-1.16,2.436,0.932,4.996c2.145,2.615,36.587,13.354,60.399,14.521c23.811,1.156,37.168,2.899,50.528,3.48
	c13.357,0.581,48.787,6.972,62.145,6.729c10.465-0.198,38.33-3.243,46.461-4.4c8.131-1.167,16.263-0.586,19.746,1.738
	c3.488,2.318,12.779,19.167,21.488,27.296c0-8.129,0.581-16.263,1.165-18.006c0.576-1.743,4.064-3.485,8.71-5.229
	s8.714-0.581,9.29-2.319c0.581-1.747-5.226-2.323-7.548-2.323c-2.323,0-5.812,0.581-6.972,1.747c-1.161,1.152,0-4.652,0-10.462
	c5.806-1.738,18.008-6.391,25.556-2.905c4.067,1.167,9.291,6.967,13.941,10.942c3.449,2.948,9.869,11.13,16.26,11.13
	c-1.742-2.324-2.902-5.229-4.066-10.452c-1.162-5.225-1.162-11.034,0-13.363c1.164-2.318,16.26-3.476,23.811-4.062
	c7.553-0.581,13.94-0.581,16.843-1.743c2.902-1.157,5.811-1.157,7.553,0C398.531,109.216,319.402,114.841,295.023,116.502z"/>
<path fill="#8E8993" d="M419.248,136.986c9.291,9.29,24.392,12.776,26.137,12.195c1.743-0.581,3.486-3.486,2.9-4.647
	c-0.579-1.157-6.391-8.71-9.291-12.777c-2.905-4.062-8.134-15.101-8.134-18.005c0-2.9,2.326-9.291,4.069-13.357
	c1.743-4.063,11.617-13.938,15.098-16.839c3.486-2.91,18.006-12.195,20.332-15.101c2.321-2.905,5.227-4.652,5.227-6.972
	c0-2.324,2.324-3.486,3.481-1.743c1.166,1.743,5.233,1.162,6.388,0c1.162-1.162,6.972-9.296,9.296-16.844
	c-6.389-0.575-26.718,4.067-55.757,21.492c-29.034,17.424-30.777,28.458-38.911,33.105s-20.327,1.162-23.811-1.743
	c-3.488-2.904-4.647-2.904-10.452-13.938c-3.486,5.224-6.391,11.615-25.559,12.196c-19.165,0.575-45.299-12.782-65.626-18.587
	c-16.26-4.647-34.846-8.129-51.109-17.425c6.389,0.581,11.615,3.486,22.07,5.806c-11.617-10.453-15.681-23.806-15.681-33.102
	c0-9.291,1.743-10.453,4.064-30.201c-13.941,0-23.496,3.748-37.168,17.43c-15.105,15.096-16.841,19.167-26.718,33.682
	c-24.391,0-59.243,9.872-96.987,18.587C35.351,78.913,0.855,93.97,0.504,96.908c-0.089,0.741,1.15,1.971,3.217,3.403
	c29.01,0.111,73.561,1.53,82.98,5.108c11.631,4.435,17.724,9.416,23.27,13.294c5.534,3.883,10.813,5.549,13.295,5.549
	c21.048,0,45.432,0.552,72.026,0c26.594-0.557,75.353-6.101,99.729-7.761c24.382-1.661,103.508-7.286,108.543,1.897
	C405.309,119.562,409.957,127.7,419.248,136.986z"/>
<path fill="none" stroke="#221F1F" stroke-linecap="round" d="M136.01,99.324c-1.109,5.544,1.663,14.408,5.539,16.068"/>
<path fill="none" stroke="#221F1F" stroke-linecap="round" d="M128.256,99.324c-1.111,5.544,1.663,14.408,5.539,16.068"/>
<path fill="none" stroke="#221F1F" stroke-linecap="round" d="M121.05,98.772c-1.111,5.538,1.666,14.408,5.541,16.068"/>
<path fill="none" stroke="#221F1F" stroke-linecap="round" d="M113.851,98.221c-1.109,5.543,1.656,14.403,5.539,16.063"/>
<path fill="none" stroke="#221F1F" stroke-linecap="round" d="M107.752,98.221c-1.106,5.543,1.661,14.403,5.539,16.063"/>
<linearGradient id="ian_symbols_1d4260c47d7fa0a469010710f5fb8b33" gradientUnits="userSpaceOnUse" x1="795.272" y1="1796.9668" x2="789.159" y2="1831.6361" gradientTransform="matrix(0.2 0 0 -0.2 -118.2545 456.6217)">
	<stop  offset="0.2135" style="stop-color:#DCD9DB"/>
	<stop  offset="0.5393" style="stop-color:#E2E0E1"/>
	<stop  offset="1" style="stop-color:#CBC7CB"/>
</linearGradient>
<path fill="url(#ian_symbols_1d4260c47d7fa0a469010710f5fb8b33)" d="M43.709,93.762c0,1.941-1.581,3.52-3.52,3.52c-1.944,0-3.522-1.578-3.522-3.52
	c0-1.946,1.578-3.521,3.522-3.521C42.129,90.241,43.709,91.815,43.709,93.762z"/>
<path fill="none" stroke="#151717" d="M403.566,118.399c1.743,1.162,6.391,9.296,15.68,18.587
	c9.29,9.29,24.394,12.776,26.139,12.195c1.743-0.581,3.483-3.486,2.9-4.643c-0.579-1.167-6.391-8.72-9.294-12.782
	c-2.902-4.066-8.131-15.101-8.131-18.005c0-2.9,2.326-9.291,4.069-13.357c1.743-4.063,11.617-13.938,15.098-16.839
	c3.486-2.91,18.006-12.195,20.33-15.101c2.321-2.905,5.226-4.652,5.226-6.972c0-2.324,2.324-3.486,3.484-1.743
	c1.164,1.743,5.233,1.162,6.388,0c1.162-1.162,6.97-9.296,9.296-16.844c-6.394-0.575-26.718,4.067-55.757,21.492
	c-29.037,17.424-30.782,28.458-38.911,33.105c-8.134,4.647-20.327,1.162-23.813-1.743c-3.486-2.904-4.647-2.904-10.453-13.938
	c-3.485,5.224-6.391,11.615-25.556,12.196c-19.167,0.575-45.299-12.782-65.628-18.587c-16.261-4.647-34.847-8.129-51.109-17.425
	c6.389,0.581,11.615,3.486,22.07,5.806c-11.615-10.453-15.682-23.806-15.682-33.102c0-9.291,1.743-10.453,4.067-30.201
	c-13.941,0-23.496,3.748-37.17,17.43c-15.103,15.096-16.841,19.167-26.715,33.682c-24.391,0-59.243,9.872-96.989,18.587
	c-37.753,8.715-72.249,23.771-72.6,26.71c-0.089,0.741,1.15,1.971,3.217,3.403c6.105,4.227,19.465,10.187,27.446,10.187
	c4.183,0,21.607-1.622,32.06-1.975c-8.126,0.58-22.418,1.975-25.904,2.561c-3.483,0.576-1.157,2.436,0.932,4.996
	c2.147,2.615,36.589,13.354,60.402,14.521c23.808,1.156,37.168,2.899,50.526,3.48c13.357,0.581,48.787,6.972,62.145,6.729
	c10.465-0.198,38.33-3.243,46.461-4.4c8.134-1.167,16.263-0.586,19.746,1.738c3.49,2.318,12.781,19.167,21.491,27.296
	c0-8.129,0.578-16.263,1.162-18.006c0.576-1.743,4.064-3.485,8.712-5.229c4.646-1.743,8.712-0.581,9.291-2.319
	c0.578-1.747-5.227-2.323-7.551-2.323c-2.323,0-5.807,0.581-6.969,1.747c-1.162,1.152,0-4.652,0-10.462
	c5.808-1.738,18.005-6.391,25.556-2.905c4.066,1.167,9.288,6.967,13.938,10.942c3.452,2.948,9.872,11.13,16.26,11.13
	c-1.742-2.324-2.899-5.229-4.064-10.452c-1.164-5.225-1.164-11.034,0-13.363c1.165-2.318,16.261-3.476,23.811-4.062
	c7.553-0.581,13.938-0.581,16.841-1.743C398.916,117.242,401.824,117.242,403.566,118.399"/>
<path fill="#8E8993" stroke="#151717" d="M123.265,124.263c2.217,1.104,10.525,11.082,16.623,32.133
	c6.093,21.051,9.421,36.011,17.175,47.088c7.758,11.082,8.313,13.3,12.188,14.96c3.883,1.666,9.976,3.878,11.082,2.218
	c1.106-1.661-2.772-27.146-2.772-36.011c0-8.865,3.326-18.286,6.098-22.164c2.767-3.878,7.202-4.431,8.862-6.096
	c1.663-1.661-2.77-9.974-3.88-12.186c-1.106-2.218-6.093-1.104-6.645-2.774c-0.557-1.661-18.838-16.069-22.719-19.947"/>
<path fill="#221F1F" d="M29.5,93.524c0.029-0.358,6.836-3.147,11.292-3.578c4.464-0.416,12.147-0.552,12.084-0.16
	c-0.089,0.402-8.463,1.782-8.884,1.859c-0.397,0.077,0.128,3.549-2.687,4.832c-2.815,1.278-3.665-3.021-4.783-3.593
	C35.414,92.318,29.476,93.868,29.5,93.524z"/>
</svg>
